<?xml version="1.0" ?><svg id="Layer_1" style="enable-background:new 0 0 48 48;" version="1.1" viewBox="0 0 48 48" xml:space="preserve" xmlns="http://www.w3.org/2000/svg" xmlns:xlink="http://www.w3.org/1999/xlink"><style type="text/css">
	.st0{opacity:0.3;}
	.st1{fill:#29ABE2;}
</style><title/><g id="Github_2"><g class="st0"><path class="st1" d="M22,21c-1.3,0-2,2-2,4s0.7,4,2,4s2-2,2-4S23.3,21,22,21z"/><path class="st1" d="M39.7,15.5c0.2-2.4-0.2-4.9-1.1-7.1C38.5,8.1,38.3,8,38.1,8c-0.1,0-3,0.4-7.2,3.3C29.6,11.1,28.3,11,27,11    c-1.3,0-2.6,0.1-3.9,0.3C18.9,8.4,16,8,15.9,8c-0.2,0-0.4,0.1-0.5,0.3c-0.9,2.3-1.3,4.7-1.1,7.1c-1.5,1.8-2.4,4-2.3,6.3    C12,29.7,16.4,34,24.3,34h5.5C37.6,34,42,29.7,42,21.8C42,19.5,41.2,17.2,39.7,15.5z M37,24.5c0,5.1-3.9,5.5-10,5.5    c-5.9,0-10-0.4-10-5.5c0-1.2,0.5-2.4,1.5-3.3c0.9-0.7,2.1-1,3.3-0.9c0.7,0,1.5,0,2.3,0.1s1.9,0.1,2.9,0.1h0c1,0,2-0.1,2.9-0.1    c2.3-0.2,4.4-0.3,5.6,0.8C36.5,22,37,23.2,37,24.5z"/><path class="st1" d="M32,21c-1.3,0-2,2-2,4s0.7,4,2,4c1.3,0,2-2,2-4S33.3,21,32,21z"/></g><path class="st1" d="M14,30c-1.1,0-2,1.5-2,3.5s0.9,3.5,2,3.5s2-1.5,2-3.5S15.1,30,14,30z M14,36c-0.4,0-1-1-1-2.5s0.6-2.5,1-2.5   s1,1,1,2.5S14.4,36,14,36z"/><path class="st1" d="M20.3,28.1c-0.7,0.1-1.5,0.1-2.3,0.1h0c-0.8,0-1.5-0.1-2.3-0.1c-2-0.2-3.9-0.3-5.2,1c-1,1-1.5,2.3-1.5,3.7   c0,5.8,4.4,6.2,9,6.2s9-0.5,9-6.2c0-1.4-0.5-2.7-1.5-3.6C24.2,27.8,22.3,28,20.3,28.1z M18,38c-5.2,0-8-0.8-8-5.2   c0-1.1,0.4-2.2,1.2-3c0.7-0.6,1.6-0.9,2.6-0.8c0.6,0,1.2,0,1.9,0.1s1.5,0.1,2.4,0.1c0.8,0,1.6,0,2.4-0.1c1.9-0.1,3.5-0.3,4.4,0.7   c0.8,0.8,1.2,1.9,1.2,3C26,37.2,23.2,38,18,38z"/><path class="st1" d="M22,30c-1.1,0-2,1.5-2,3.5s0.9,3.5,2,3.5s2-1.5,2-3.5S23.1,30,22,30z M22,36c-0.4,0-1-1-1-2.5s0.6-2.5,1-2.5   s1,1,1,2.5S22.4,36,22,36z"/><path class="st1" d="M28.2,25.3c0.1-2-0.1-4.1-0.9-6C27.2,19.1,27,19,26.8,19c-0.1,0-2.4,0.3-5.7,2.8c-1-0.2-2-0.3-3-0.3   c-1,0-2,0.1-3,0.3C11.6,19.3,9.3,19,9.2,19c-0.2,0-0.4,0.1-0.5,0.3c-0.7,1.9-1,4-0.9,6C6.6,26.8,6,28.7,6,30.7   C6,37.3,9.5,41,15.8,41h4.3c6.4,0,9.8-3.7,9.8-10.3C30,28.7,29.4,26.8,28.2,25.3z M20.2,40h-4.3c-4,0-8.8-1.6-8.8-9.3   c-0.1-1.8,0.6-3.5,1.8-4.9c0.1-0.1,0.1-0.3,0.1-0.5c-0.1-1.8,0.1-3.5,0.6-5.2c1.8,0.5,3.6,1.4,5.1,2.6c0.1,0.1,0.3,0.1,0.4,0.1   c1-0.2,2-0.3,3-0.3c1,0,2,0.1,3,0.3c0.2,0,0.3,0,0.4-0.1c1.5-1.2,3.2-2.1,5.1-2.6c0.6,1.7,0.8,3.4,0.6,5.2c-0.1,0.2,0,0.4,0.1,0.5   c1.2,1.4,1.8,3.1,1.8,4.9C29,38.4,24.2,40,20.2,40z"/></g></svg>