<?xml version="1.0" ?><svg id="Layer_1" style="enable-background:new 0 0 48 48;" version="1.1" viewBox="0 0 48 48" xml:space="preserve" xmlns="http://www.w3.org/2000/svg" xmlns:xlink="http://www.w3.org/1999/xlink"><style type="text/css">
	.st0{opacity:0.3;fill:#29ABE2;enable-background:new    ;}
	.st1{fill:#29ABE2;}
</style><title/><g id="Google_Docs"><path class="st0" d="M37.8,12.1l-6-6C31.8,6.1,31.6,6,31.5,6H18c-1.1,0-2,0.9-2,2v26c0,1.1,0.9,2,2,2h18c1.1,0,2-0.9,2-2V12.5   C38,12.4,37.9,12.2,37.8,12.1z M27.5,28h-6c-0.3,0-0.5-0.2-0.5-0.5s0.2-0.5,0.5-0.5h6c0.3,0,0.5,0.2,0.5,0.5S27.8,28,27.5,28z    M32.5,26h-11c-0.3,0-0.5-0.2-0.5-0.5s0.2-0.5,0.5-0.5h11c0.3,0,0.5,0.2,0.5,0.5S32.8,26,32.5,26z M32.5,24h-11   c-0.3,0-0.5-0.2-0.5-0.5s0.2-0.5,0.5-0.5h11c0.3,0,0.5,0.2,0.5,0.5S32.8,24,32.5,24z M32.5,22h-11c-0.3,0-0.5-0.2-0.5-0.5   s0.2-0.5,0.5-0.5h11c0.3,0,0.5,0.2,0.5,0.5S32.8,22,32.5,22z M33.1,12c-0.6,0-1.1-0.5-1.1-1.1c0,0,0,0,0,0V7.7l4.3,4.3H33.1z"/><path class="st1" d="M26.9,23.1l-5-5c-0.1-0.1-0.2-0.1-0.4-0.1H11c-1.1,0-2,0.9-2,2v20c0,1.1,0.9,2,2,2h14c1.1,0,2-0.9,2-2V23.5   C27,23.4,26.9,23.2,26.9,23.1z M22,19.7l3.3,3.3H23c-0.6,0-1-0.4-1-1V19.7z M25,41H11c-0.6,0-1-0.4-1-1V20c0-0.6,0.4-1,1-1h10v3   c0,1.1,0.9,2,2,2h3v16C26,40.6,25.6,41,25,41z"/><path class="st1" d="M22.5,29h-9c-0.3,0-0.5,0.2-0.5,0.5s0.2,0.5,0.5,0.5h9c0.3,0,0.5-0.2,0.5-0.5S22.8,29,22.5,29z"/><path class="st1" d="M22.5,31h-9c-0.3,0-0.5,0.2-0.5,0.5s0.2,0.5,0.5,0.5h9c0.3,0,0.5-0.2,0.5-0.5S22.8,31,22.5,31z"/><path class="st1" d="M22.5,33h-9c-0.3,0-0.5,0.2-0.5,0.5s0.2,0.5,0.5,0.5h9c0.3,0,0.5-0.2,0.5-0.5S22.8,33,22.5,33z"/><path class="st1" d="M18.5,35h-5c-0.3,0-0.5,0.2-0.5,0.5s0.2,0.5,0.5,0.5h5c0.3,0,0.5-0.2,0.5-0.5S18.8,35,18.5,35z"/></g></svg>