<?xml version="1.0" ?><svg style="enable-background:new 0 0 48 48;" version="1.1" viewBox="0 0 48 48" xml:space="preserve" xmlns="http://www.w3.org/2000/svg" xmlns:xlink="http://www.w3.org/1999/xlink"><g id="Icons"><g id="Icons_22_"><g><path d="M34.95495,10.525h-21.91c-1.3899,0-2.52,1.13-2.52,2.5199v21.91c0,1.3901,1.13,2.5201,2.52,2.5201     h21.91c1.39,0,2.5201-1.13,2.5201-2.5201v-21.91C37.47505,11.655,36.34505,10.525,34.95495,10.525z M19.41505,31.3349     c-0.95-0.01-1.9101-0.01-2.8701,0c-0.18,0-0.23-0.0499-0.23-0.2399V20.9549c0-0.19,0.06-0.2399,0.24-0.2399     c0.95,0.01,1.91,0.01,2.8601,0c0.1899,0,0.24,0.06,0.2299,0.2399v5.0801c0,1.69,0,3.3799,0.0101,5.0699     C19.65505,31.285,19.59505,31.3349,19.41505,31.3349z M17.98495,19.3549c-1.06,0.01-1.93-0.8799-1.93-1.93     c0.01-1.01,0.78-1.92,1.9201-1.93c1.0799-0.01,1.94,0.81,1.94,1.93C19.91505,18.525,19.07495,19.345,17.98495,19.3549z      M31.64495,31.3349h-2.81c-0.23,0-0.2399-0.01-0.2399-0.25v-5.14c0-0.4799-0.0101-0.96-0.1501-1.43     c-0.2199-0.7299-0.69-1.08-1.46-1.1c-0.54-0.01-1.05,0.09-1.43,0.51c-0.31,0.33-0.44,0.73-0.5,1.1701     c-0.04,0.3899-0.07,0.7899-0.07,1.19c-0.0099,1.6099-0.0099,3.2199,0,4.8199c0,0.1801-0.05,0.23-0.22,0.23     c-0.96-0.01-1.9299-0.01-2.89,0c-0.1699,0-0.2299-0.0499-0.2299-0.23c0.01-3.3799,0.01-6.77,0-10.16     c0-0.18,0.07-0.2299,0.2299-0.2299c0.92,0.01,1.8401,0.01,2.76,0c0.18,0,0.24,0.07,0.23,0.2399c-0.01,0.37,0,0.75,0,1.12     c0.52-0.77,1.2201-1.26,2.1001-1.4799c1.0199-0.25,2.0299-0.1701,2.99,0.25c0.9299,0.3999,1.4299,1.1599,1.69,2.0999     c0.1799,0.61,0.26,1.24,0.27,1.88c0.0099,2.07,0.0199,4.1401,0.0299,6.22C31.94495,31.3349,31.94495,31.3349,31.64495,31.3349z" style="fill:#0097D3;"/></g></g></g></svg>