<?xml version="1.0" ?><svg id="Layer_1" style="enable-background:new 0 0 48 48;" version="1.1" viewBox="0 0 48 48" xml:space="preserve" xmlns="http://www.w3.org/2000/svg" xmlns:xlink="http://www.w3.org/1999/xlink"><style type="text/css">
	.st0{opacity:0.3;fill:#29ABE2;enable-background:new    ;}
	.st1{fill:#29ABE2;}
</style><title/><g id="LinkedIn"><path class="st0" d="M38,8H16c-1.1,0-2,0.9-2,2v22c0,1.1,0.9,2,2,2h22c1.1,0,2-0.9,2-2V10C40,8.9,39.1,8,38,8z M23,30.5   c0,0.3-0.2,0.5-0.5,0.5h-4c-0.3,0-0.5-0.2-0.5-0.5v-12c0-0.3,0.2-0.5,0.5-0.5h4c0.3,0,0.5,0.2,0.5,0.5V30.5z M20.5,17   c-1.4,0-2.5-1.1-2.5-2.5s1.1-2.5,2.5-2.5s2.5,1.1,2.5,2.5S21.9,17,20.5,17z M37,30.5c0,0.3-0.2,0.5-0.5,0.5h-4   c-0.3,0-0.5-0.2-0.5-0.5v-7c0-0.8-0.7-1.5-1.5-1.5S29,22.7,29,23.5v7c0,0.3-0.2,0.5-0.5,0.5h-4c-0.3,0-0.5-0.2-0.5-0.5v-12   c0-0.3,0.2-0.5,0.5-0.5h4c0.3,0,0.5,0.2,0.5,0.5V19c0.9-0.7,1.9-1,3-1c2.8,0,5,2.2,5,5V30.5z"/><path class="st1" d="M12,22c-1.1,0-2,0.9-2,2s0.9,2,2,2s2-0.9,2-2S13.1,22,12,22z M12,25c-0.6,0-1-0.4-1-1s0.4-1,1-1s1,0.4,1,1   S12.6,25,12,25z"/><path class="st1" d="M13.5,27h-3c-0.3,0-0.5,0.2-0.5,0.5v10c0,0.3,0.2,0.5,0.5,0.5h3c0.3,0,0.5-0.2,0.5-0.5v-10   C14,27.2,13.8,27,13.5,27z M13,37h-2v-9h2V37z"/><path class="st1" d="M21.5,27c-0.9,0-1.8,0.3-2.5,0.8v-0.3c0-0.3-0.2-0.5-0.5-0.5h-3c-0.3,0-0.5,0.2-0.5,0.5v10   c0,0.3,0.2,0.5,0.5,0.5h3c0.3,0,0.5-0.2,0.5-0.5V32c0-1.3,0.6-2,1.5-2s1.5,0.8,1.5,2v5.5c0,0.3,0.2,0.5,0.5,0.5h3   c0.3,0,0.5-0.2,0.5-0.5V32C26,29,24.2,27,21.5,27z M25,37h-2v-5c0-2.1-1.3-3-2.5-3S18,29.9,18,32v5h-2v-9h2v1   c0,0.3,0.2,0.5,0.5,0.5c0.1,0,0.3-0.1,0.4-0.2c0.6-0.9,1.6-1.4,2.6-1.3c2.2,0,3.5,1.5,3.5,4V37z"/><path class="st1" d="M27,19H9c-1.1,0-2,0.9-2,2v18c0,1.1,0.9,2,2,2h18c1.1,0,2-0.9,2-2V21C29,19.9,28.1,19,27,19z M28,39   c0,0.6-0.4,1-1,1H9c-0.6,0-1-0.4-1-1V21c0-0.6,0.4-1,1-1h18c0.6,0,1,0.4,1,1V39z"/></g></svg>